# xmcd
#
# Track frame offsets: 
#        150
#        12375
#        24100
#        36225
#        49987
#        65375
#        78150
#        89475
#        104300
#        115612
#        130550
#        142100
#        155225
#
# Disc length: 2320 seconds
#
# Revision: 0
# Processed by: cddbd v1.5.2PL0 Copyright (c) Steve Scherf et al.
# Submitted via: ExactAudioCopy v0.99pb4
#
DISCID=a5090e0d
DTITLE=葛蘭 - 葛蘭 - 金裝葛蘭名典
DYEAR=1994
DGENRE=Vocal
TTITLE0=我要你的愛 
TTITLE1=我愛恰恰
TTITLE2=說不出的快活
TTITLE3=曼波女郎 
TTITLE4=Never On Sunday 
TTITLE5=瘋狂的週末 
TTITLE6=台灣小調 
TTITLE7=我要飛上青天 
TTITLE8=追求 
TTITLE9=飛車歌 
TTITLE10=Ding Dong Song 
TTITLE11=少女的謎 
TTITLE12=蝴蝶夫人 
EXTD=
EXTT0=
EXTT1=
EXTT2=
EXTT3=
EXTT4=
EXTT5=
EXTT6=
EXTT7=
EXTT8=
EXTT9=
EXTT10=
EXTT11=
EXTT12=
PLAYORDER=
